<svg width="20" height="16" viewBox="0 0 20 16" fill="none" xmlns="http://www.w3.org/2000/svg">
<path d="M9.60263 4.436C8.78952 5.24575 8.33209 6.3458 8.3313 7.49334V7.5V7.50567C8.33075 8.40466 8.61231 9.28117 9.1363 10.0117C9.2048 10.111 9.32168 10.1656 9.44185 10.1544C9.56203 10.1431 9.66672 10.0678 9.71557 9.95739C9.76442 9.84701 9.74978 9.71885 9.6773 9.62234C9.64997 9.584 9.62563 9.54367 9.59963 9.50434L15.3333 9.51667C15.5174 9.51667 15.6666 9.36743 15.6666 9.18334C15.6666 8.99924 15.5174 8.85 15.3333 8.85L13.64 8.84634C13.9756 8.60497 14.2095 8.24749 14.2963 7.84334H14.3226C15.0644 7.84279 15.6657 7.24178 15.6666 6.5V6.16667C15.6666 5.98257 15.5174 5.83334 15.3333 5.83334C15.1492 5.83334 15 5.98257 15 6.16667V6.5C14.9994 6.87349 14.6968 7.17612 14.3233 7.17667H14.3C14.1446 6.3994 13.4634 5.83906 12.6707 5.83663C11.8781 5.83421 11.1934 6.39036 11.0333 7.16667H9.01463C9.1341 5.8604 9.94226 4.71744 11.134 4.16936C12.3257 3.62127 13.7195 3.75155 14.789 4.511C14.9385 4.61851 15.1468 4.58449 15.2543 4.435C15.3618 4.28552 15.3278 4.07718 15.1783 3.96967C13.4551 2.74288 11.0979 2.94018 9.60263 4.43634V4.436ZM9.2513 8.836C9.12533 8.51467 9.04565 8.17708 9.01463 7.83334H11.0333C11.1182 8.23933 11.3513 8.5991 11.6873 8.84234L9.2513 8.836ZM12.6666 6.5C13.2189 6.5 13.6666 6.94772 13.6666 7.5C13.6666 8.05229 13.2189 8.5 12.6666 8.5C12.1144 8.5 11.6666 8.05229 11.6666 7.5C11.6666 6.94772 12.1144 6.5 12.6666 6.5Z" fill="#8593AF"/>
<path d="M16.3358 7.49982C16.3334 9.52387 14.6931 11.1641 12.6691 11.1665C11.9071 11.1703 11.1635 10.9331 10.5444 10.4888C10.4477 10.4193 10.3213 10.4066 10.2127 10.4556C10.1041 10.5045 10.0299 10.6077 10.018 10.7262C10.0061 10.8447 10.0584 10.9606 10.1551 11.0302C11.8785 12.2538 14.2333 12.0556 15.7279 10.561C17.2225 9.0664 17.4208 6.71158 16.1971 4.98815C16.1286 4.88878 16.0117 4.83419 15.8915 4.84545C15.7714 4.85671 15.6667 4.93206 15.6178 5.04244C15.569 5.15281 15.5836 5.28097 15.6561 5.37749C16.0996 5.99615 16.3374 6.7386 16.3358 7.49982Z" fill="#8593AF"/>
<path d="M12.6666 7.83317C12.8507 7.83317 12.9999 7.68393 12.9999 7.49984C12.9999 7.31574 12.8507 7.1665 12.6666 7.1665C12.4825 7.1665 12.3333 7.31574 12.3333 7.49984C12.3333 7.68393 12.4825 7.83317 12.6666 7.83317Z" fill="#8593AF"/>
<path d="M3.66659 7.83317C3.85068 7.83317 3.99992 7.68393 3.99992 7.49984C3.99992 7.31574 3.85068 7.1665 3.66659 7.1665C3.48249 7.1665 3.33325 7.31574 3.33325 7.49984C3.33325 7.68393 3.48249 7.83317 3.66659 7.83317Z" fill="#8593AF"/>
<path d="M0.333344 8.81659C0.149249 8.81659 1.02824e-05 8.96583 1.02824e-05 9.14992C1.02824e-05 9.33402 0.149249 9.48326 0.333344 9.48326L7.36668 9.49992C7.94304 11.0284 9.15094 12.2338 10.6806 12.8069C12.2102 13.3801 13.9128 13.2653 15.3517 12.4919L17.6184 14.7606C18.1639 15.3057 19.0481 15.3053 19.5932 14.7598C20.1383 14.2142 20.1379 13.33 19.5924 12.7849L17.408 10.6036C18.4541 9.00869 18.6267 6.99421 17.8671 5.24462C17.1075 3.49504 15.5179 2.24563 13.6384 1.92092C13.405 1.78425 13.1584 1.64992 12.905 1.52092C12.0092 1.06929 11.02 0.833775 10.0167 0.833253H7.76668C6.97017 0.832757 6.19928 1.11468 5.59101 1.62892L3.21801 3.63892C3.20301 3.65163 3.18614 3.66197 3.16801 3.66959C1.96301 4.14392 0.792344 4.47225 0.773677 4.47759C0.313 4.61477 -0.00207434 5.03926 1.02824e-05 5.51992V6.49992C0.000928576 7.24144 0.601822 7.84234 1.34334 7.84326H2.03635C2.12092 8.23424 2.3435 8.58167 2.66335 8.82192L0.333344 8.81659ZM19.12 13.2546C19.4054 13.5392 19.406 14.0012 19.1214 14.2866C18.8367 14.5719 18.3747 14.5725 18.0894 14.2879L15.931 12.1266C16.1956 11.9413 16.444 11.734 16.6737 11.5069C16.7904 11.3899 16.899 11.2673 17.0044 11.1423L19.12 13.2546ZM17.6667 7.49992C17.6669 9.88531 15.982 11.9386 13.6425 12.4042C11.303 12.8697 8.96041 11.6178 8.04741 9.41406C7.13442 7.21031 7.90528 4.66852 9.88857 3.34315C11.8719 2.01778 14.5152 2.27796 16.202 3.96459C17.1429 4.9001 17.6703 6.17315 17.6667 7.49992ZM8.65968 3.49292C8.55068 3.60225 8.45035 3.71725 8.35135 3.83325H6.07968L6.87968 3.15559C7.12838 2.94741 7.44236 2.83332 7.76668 2.83325H9.45568C9.17103 3.02872 8.90461 3.24951 8.65968 3.49292ZM0.666677 6.49992V6.16659H1.33334C1.51744 6.16659 1.66668 6.01735 1.66668 5.83325C1.66668 5.64916 1.51744 5.49992 1.33334 5.49992H0.670011C0.675718 5.32402 0.79184 5.17088 0.959677 5.11792C1.00868 5.10425 2.17368 4.77759 3.41435 4.28925C3.49906 4.25453 3.57779 4.20673 3.64768 4.14759L6.02101 2.13759C6.50911 1.72515 7.12767 1.4992 7.76668 1.49992H10.0167C10.707 1.50114 11.3915 1.6267 12.0373 1.87059C11.5594 1.92366 11.0902 2.03781 10.6413 2.21025C10.4343 2.18207 10.2256 2.16748 10.0167 2.16659H7.76668C7.28563 2.16706 6.82005 2.33661 6.45135 2.64559L4.95468 3.91225C4.848 4.00263 4.80906 4.14999 4.85716 4.28127C4.90527 4.41256 5.03019 4.49987 5.17001 4.49992H7.86368C7.36042 5.30292 7.0689 6.22038 7.01635 7.16659H5.30001C5.13992 6.39028 4.45523 5.83413 3.66259 5.83655C2.86995 5.83898 2.18868 6.39932 2.03334 7.17659H1.34334C0.96986 7.17604 0.667228 6.87341 0.666677 6.49992ZM4.66668 7.49992C4.66668 8.05221 4.21896 8.49992 3.66668 8.49992C3.11439 8.49992 2.66668 8.05221 2.66668 7.49992C2.66668 6.94764 3.11439 6.49992 3.66668 6.49992C4.21896 6.49992 4.66668 6.94764 4.66668 7.49992ZM5.30001 7.83326H7.01668C7.03578 8.1703 7.08498 8.50497 7.16368 8.83326L4.66368 8.82759C4.99018 8.58505 5.21655 8.23133 5.30001 7.83326Z" fill="#8593AF"/>
</svg>
