<svg width="20" height="20" viewBox="0 0 20 20" fill="none" xmlns="http://www.w3.org/2000/svg">
<g clip-path="url(#clip0_4787_442)">
<path d="M19.7812 11.6875L18.8125 11.375C18.75 11.1875 18.6562 11 18.5625 10.8125L19.0312 9.90625C19.0938 9.78125 19.0625 9.65625 18.9688 9.5625L18.0625 8.65625C17.9688 8.5625 17.8125 8.53125 17.7188 8.59375L17.4062 8.75L17.4375 8.25C17.4688 7.9375 17.3438 7.625 17.125 7.375L17.6875 7.3125C18.3125 7.25 18.8125 6.6875 18.75 6C18.6875 5.4375 18.1875 4.96875 17.5938 4.96875L16.5312 4.9375C16.1562 4.9375 15.8125 5.09375 15.5938 5.40625C15.3125 4.71875 14.9375 4.09375 14.5 3.375C14.125 2.78125 13.4688 2.375 12.75 2.375H5.96875C5.25 2.375 4.59375 2.75 4.21875 3.375C3.78125 4.09375 3.4375 4.6875 3.15625 5.375C2.90625 5.0625 2.59375 4.9375 2.25 4.9375L1.1875 4.96875C0.53125 5 0 5.53125 0 6.125C0 6.71875 0.46875 7.21875 1.09375 7.3125L1.625 7.375C1.40625 7.59375 1.28125 7.90625 1.3125 8.25L1.5625 12.3438C1.59375 12.7188 1.8125 13.0313 2.125 13.1875V13.9375C2.125 14.4688 2.5625 14.875 3.09375 14.875H4.875C5.40625 14.875 5.8125 14.4375 5.8125 13.9375V13.3125H10.0938C10.125 13.4063 10.1875 13.5 10.2812 13.5313L11.25 13.8438C11.3125 14.0313 11.4062 14.2188 11.5 14.4063L11 15.3125C10.9375 15.4375 10.9688 15.5625 11.0625 15.6563L11.9688 16.5625C12.0625 16.6563 12.2188 16.6875 12.3125 16.625L13.2188 16.1563C13.4062 16.25 13.5937 16.3438 13.7812 16.4063L14.0938 17.375C14.125 17.5 14.25 17.5938 14.375 17.5938H15.6562C15.7812 17.5938 15.9062 17.5 15.9375 17.375L16.25 16.4063C16.4375 16.3438 16.625 16.25 16.8125 16.1563L17.7188 16.625C17.8438 16.6875 17.9688 16.6563 18.0625 16.5625L18.9688 15.6563C19.0625 15.5625 19.0938 15.4063 19.0312 15.3125L18.5625 14.4063C18.6562 14.2188 18.75 14.0313 18.8125 13.8438L19.7812 13.5313C19.9062 13.5 20 13.375 20 13.25V11.9688C20 11.8438 19.9062 11.7188 19.7812 11.6875ZM11.2188 11.375L11.0938 11.4063H7.625C7.46875 11.4063 7.3125 11.5313 7.3125 11.7188C7.3125 11.9063 7.4375 12.0313 7.625 12.0313H10.0312V12.7188C4.625 12.7188 8 12.7188 2.59375 12.7188C2.375 12.7188 2.15625 12.5313 2.15625 12.3125L2.03125 10C2.1875 10.0313 4 11.0938 5.15625 9.5L5.34375 9.6875C5.78125 10.2188 6.375 10.5313 7.03125 10.5313H11.3438L11.4688 10.7813C11.375 10.9688 11.2813 11.1875 11.2188 11.375ZM1.90625 8.1875C1.90625 8.15625 1.90625 8.09375 1.90625 8.0625C3.1875 8.125 4.09375 8.59375 4.6875 9.09375C3.8125 10.4375 2.25 9.375 1.9375 9.34375L1.90625 8.1875ZM11.0312 9.53125C10.9375 9.625 10.9062 9.78125 10.9688 9.875L11 9.9375H7C6.53125 9.9375 6.09375 9.71875 5.78125 9.34375C5 8.34375 3.875 7.6875 2.46875 7.5C2.6875 7.34375 2.875 7.125 3.0625 6.90625H15.75C15.9688 7.1875 16.25 7.4375 16.5625 7.65625C16.5938 7.6875 16.9062 7.8125 16.875 8.1875L16.8125 9.03125C16.625 8.9375 16.4688 8.875 16.2812 8.8125L15.9688 7.84375C15.9375 7.71875 15.8125 7.625 15.6875 7.625H14.375C14.25 7.625 14.125 7.71875 14.0938 7.84375L13.7812 8.8125C13.5937 8.875 13.4062 8.96875 13.2188 9.0625L12.3125 8.59375C12.1875 8.53125 12.0625 8.5625 11.9688 8.65625L11.0312 9.53125ZM16.5312 5.5625L17.5938 5.59375C17.9062 5.59375 18.125 5.8125 18.1562 6.09375C18.1875 6.40625 17.9375 6.6875 17.625 6.71875L16.4688 6.84375C16.3125 6.6875 16.1562 6.5 16.0312 6.3125L16 6.09375C15.9688 5.78125 16.2812 5.53125 16.5312 5.5625ZM4.75 3.71875C5 3.28125 5.46875 3.03125 5.96875 3.03125H12.75C13.25 3.03125 13.7188 3.3125 13.9688 3.71875C14.4688 4.53125 14.8125 5.15625 15.125 5.90625C15.1875 6.03125 15.25 6.1875 15.3125 6.3125H3.40625C3.46875 6.1875 3.53125 6.0625 3.59375 5.90625C3.90625 5.15625 4.25 4.53125 4.75 3.71875ZM0.625 6.125C0.625 5.84375 0.875 5.5625 1.21875 5.5625L2.28125 5.53125C2.59375 5.53125 2.84375 5.78125 2.8125 6.0625L2.75 6.25C2.625 6.46875 2.46875 6.6875 2.28125 6.84375L1.15625 6.71875C0.84375 6.6875 0.625 6.4375 0.625 6.125ZM5.15625 13.9375C5.15625 14.125 5 14.2813 4.8125 14.2813H3.0625C2.875 14.2813 2.71875 14.125 2.71875 13.9375V13.3125H5.1875V13.9375H5.15625ZM19.375 13.0313L18.4688 13.3125C18.375 13.3438 18.2812 13.4375 18.2812 13.5313C18.2188 13.7813 18.0938 14.0313 17.9688 14.2813C17.9062 14.375 17.9062 14.4688 17.9688 14.5625L18.4062 15.4063L17.8125 16L16.9688 15.5625C16.875 15.5 16.7812 15.5313 16.6875 15.5625C16.4375 15.6875 16.1875 15.8125 15.9375 15.875C15.8438 15.9063 15.75 15.9688 15.7188 16.0625L15.4375 16.9688H14.5938L14.3125 16.0625C14.2812 15.9688 14.1875 15.875 14.0938 15.875C13.8437 15.8125 13.5938 15.6875 13.3438 15.5625C13.25 15.5 13.1562 15.5 13.0625 15.5625L12.2188 16L11.625 15.4063L12.0625 14.5625C12.125 14.4688 12.0938 14.375 12.0625 14.2813C11.9375 14.0313 11.8125 13.7813 11.75 13.5313C11.7187 13.4375 11.6562 13.3438 11.5625 13.3125L10.6562 13.0313V13V12.1875L11.5625 11.9063C11.6562 11.875 11.75 11.7813 11.75 11.6875C11.8125 11.4375 11.9375 11.1875 12.0625 10.9375C12.125 10.8438 12.125 10.75 12.0625 10.6563L11.625 9.8125L12.2188 9.21875L13.0625 9.65625C13.1562 9.71875 13.25 9.6875 13.3438 9.65625C13.5938 9.53125 13.8437 9.40625 14.0938 9.34375C14.1875 9.3125 14.2812 9.25 14.3125 9.15625L14.5938 8.25H15.4375L15.7188 9.15625C15.75 9.25 15.8438 9.34375 15.9375 9.34375C16.1875 9.40625 16.4375 9.53125 16.6875 9.65625C16.7812 9.71875 16.875 9.71875 16.9688 9.65625L17.8125 9.21875L18.4062 9.8125L17.9688 10.6563C17.9062 10.75 17.9375 10.8438 17.9688 10.9375C18.0938 11.1875 18.2188 11.4375 18.2812 11.6875C18.3125 11.7813 18.375 11.875 18.4688 11.9063L19.375 12.1875V13.0313Z" fill="#8593AF"/>
<path d="M14.7812 10.5938C13.6875 10.5938 12.7812 11.5 12.7812 12.5937C12.7812 13.6875 13.6875 14.5938 14.7812 14.5938C15.875 14.5938 16.7812 13.6875 16.7812 12.5937C16.7812 11.5 15.9062 10.5938 14.7812 10.5938ZM14.7812 14C14 14 13.375 13.375 13.375 12.5937C13.375 11.8125 14 11.1875 14.7812 11.1875C15.5625 11.1875 16.1875 11.8125 16.1875 12.5937C16.1875 13.375 15.5625 14 14.7812 14Z" fill="#8593AF"/>
</g>
<defs>
<clipPath id="clip0_4787_442">
<rect width="20" height="20" fill="white"/>
</clipPath>
</defs>
</svg>
