<svg width="100" height="100" viewBox="0 0 100 100" fill="none" xmlns="http://www.w3.org/2000/svg">
<g clip-path="url(#clip0_5129_641)">
<path d="M98.9062 58.4375L94.0625 56.875C93.75 55.9375 93.2812 55 92.8125 54.0625L95.1562 49.5313C95.4688 48.9063 95.3125 48.2813 94.8438 47.8125L90.3125 43.2813C89.8438 42.8125 89.0625 42.6563 88.5938 42.9688L87.0312 43.75L87.1875 41.25C87.3438 39.6875 86.7188 38.125 85.625 36.875L88.4375 36.5625C91.5625 36.25 94.0625 33.4375 93.75 30C93.4375 27.1875 90.9375 24.8438 87.9688 24.8438L82.6562 24.6875C80.7812 24.6875 79.0625 25.4688 77.9688 27.0313C76.5625 23.5938 74.6875 20.4688 72.5 16.875C70.625 13.9063 67.3438 11.875 63.75 11.875H29.8438C26.25 11.875 22.9688 13.75 21.0938 16.875C18.9062 20.4688 17.1875 23.4375 15.7813 26.875C14.5313 25.3125 12.9688 24.6875 11.25 24.6875L5.9375 24.8438C2.65625 25 0 27.6563 0 30.625C0 33.5938 2.34375 36.0938 5.46875 36.5625L8.125 36.875C7.03125 37.9688 6.40625 39.5313 6.5625 41.25L7.8125 61.7188C7.96875 63.5938 9.0625 65.1563 10.625 65.9375V69.6875C10.625 72.3438 12.8125 74.375 15.4687 74.375H24.375C27.0312 74.375 29.0625 72.1875 29.0625 69.6875V66.5625H50.4688C50.625 67.0313 50.9375 67.5 51.4063 67.6563L56.25 69.2188C56.5625 70.1563 57.0312 71.0938 57.5 72.0313L55 76.5625C54.6875 77.1875 54.8438 77.8125 55.3125 78.2813L59.8438 82.8125C60.3125 83.2813 61.0938 83.4375 61.5625 83.125L66.0938 80.7813C67.0312 81.25 67.9688 81.7188 68.9062 82.0313L70.4688 86.875C70.625 87.5 71.25 87.9688 71.875 87.9688H78.2812C78.9062 87.9688 79.5312 87.5 79.6875 86.875L81.25 82.0313C82.1875 81.7188 83.125 81.25 84.0625 80.7813L88.5938 83.125C89.2188 83.4375 89.8438 83.2813 90.3125 82.8125L94.8438 78.2813C95.3125 77.8125 95.4688 77.0313 95.1562 76.5625L92.8125 72.0313C93.2812 71.0938 93.75 70.1563 94.0625 69.2188L98.9062 67.6563C99.5312 67.5 100 66.875 100 66.25V59.8438C100 59.2188 99.5312 58.5938 98.9062 58.4375ZM56.0938 56.875L55.4688 57.0313H38.125C37.3438 57.0313 36.5625 57.6563 36.5625 58.5938C36.5625 59.5313 37.1875 60.1563 38.125 60.1563H50.1562V63.5938C23.125 63.5938 40 63.5938 12.9688 63.5938C11.875 63.5938 10.7812 62.6563 10.7812 61.5625L10.1562 50C10.9375 50.1563 20 55.4688 25.7812 47.5L26.7188 48.4375C28.9062 51.0938 31.875 52.6563 35.1562 52.6563H56.7188L57.3438 53.9063C56.875 54.8438 56.4063 55.9375 56.0938 56.875ZM9.53125 40.9375C9.53125 40.7813 9.53125 40.4688 9.53125 40.3125C15.9375 40.625 20.4688 42.9688 23.4375 45.4688C19.0625 52.1875 11.25 46.875 9.6875 46.7188L9.53125 40.9375ZM55.1562 47.6563C54.6875 48.125 54.5312 48.9063 54.8437 49.375L55 49.6875H35C32.6562 49.6875 30.4688 48.5938 28.9062 46.7188C25 41.7188 19.375 38.4375 12.3438 37.5C13.4375 36.7188 14.375 35.625 15.3125 34.5313H78.75C79.8438 35.9375 81.25 37.1875 82.8125 38.2813C82.9688 38.4375 84.5312 39.0625 84.375 40.9375L84.0625 45.1563C83.125 44.6875 82.3438 44.375 81.4062 44.0625L79.8438 39.2188C79.6875 38.5938 79.0625 38.125 78.4375 38.125H71.875C71.25 38.125 70.625 38.5938 70.4688 39.2188L68.9062 44.0625C67.9688 44.375 67.0312 44.8438 66.0938 45.3125L61.5625 42.9688C60.9375 42.6563 60.3125 42.8125 59.8438 43.2813L55.1562 47.6563ZM82.6562 27.8125L87.9688 27.9688C89.5312 27.9688 90.625 29.0625 90.7812 30.4688C90.9375 32.0313 89.6875 33.4375 88.125 33.5938L82.3438 34.2188C81.5625 33.4375 80.7812 32.5 80.1562 31.5625L80 30.4688C79.8438 28.9063 81.4062 27.6563 82.6562 27.8125ZM23.75 18.5938C25 16.4063 27.3438 15.1563 29.8438 15.1563H63.75C66.25 15.1563 68.5938 16.5625 69.8438 18.5938C72.3438 22.6563 74.0625 25.7813 75.625 29.5313C75.9375 30.1563 76.25 30.9375 76.5625 31.5625H17.0312C17.3438 30.9375 17.6562 30.3125 17.9688 29.5313C19.5312 25.7813 21.25 22.6563 23.75 18.5938ZM3.125 30.625C3.125 29.2188 4.375 27.8125 6.09375 27.8125L11.4062 27.6563C12.9688 27.6563 14.2188 28.9063 14.0625 30.3125L13.75 31.25C13.125 32.3438 12.3438 33.4375 11.4062 34.2188L5.78125 33.5938C4.21875 33.4375 3.125 32.1875 3.125 30.625ZM25.7812 69.6875C25.7812 70.625 25 71.4063 24.0625 71.4063H15.3125C14.375 71.4063 13.5938 70.625 13.5938 69.6875V66.5625H25.9375V69.6875H25.7812ZM96.875 65.1563L92.3438 66.5625C91.875 66.7188 91.4062 67.1875 91.4062 67.6563C91.0938 68.9063 90.4688 70.1563 89.8438 71.4063C89.5312 71.875 89.5312 72.3438 89.8438 72.8125L92.0312 77.0313L89.0625 80L84.8438 77.8125C84.375 77.5 83.9062 77.6563 83.4375 77.8125C82.1875 78.4375 80.9375 79.0625 79.6875 79.375C79.2188 79.5313 78.75 79.8438 78.5938 80.3125L77.1875 84.8438H72.9688L71.5625 80.3125C71.4062 79.8438 70.9375 79.375 70.4688 79.375C69.2188 79.0625 67.9688 78.4375 66.7188 77.8125C66.25 77.5 65.7812 77.5 65.3125 77.8125L61.0937 80L58.125 77.0313L60.3125 72.8125C60.625 72.3438 60.4687 71.875 60.3125 71.4063C59.6875 70.1563 59.0625 68.9063 58.75 67.6563C58.5937 67.1875 58.2812 66.7188 57.8125 66.5625L53.2812 65.1563V65V60.9375L57.8125 59.5313C58.2812 59.375 58.75 58.9063 58.75 58.4375C59.0625 57.1875 59.6875 55.9375 60.3125 54.6875C60.625 54.2188 60.625 53.75 60.3125 53.2813L58.125 49.0625L61.0937 46.0938L65.3125 48.2813C65.7812 48.5938 66.25 48.4375 66.7188 48.2813C67.9688 47.6563 69.2188 47.0313 70.4688 46.7188C70.9375 46.5625 71.4062 46.25 71.5625 45.7813L72.9688 41.25H77.1875L78.5938 45.7813C78.75 46.25 79.2188 46.7188 79.6875 46.7188C80.9375 47.0313 82.1875 47.6563 83.4375 48.2813C83.9062 48.5938 84.375 48.5938 84.8438 48.2813L89.0625 46.0938L92.0312 49.0625L89.8438 53.2813C89.5312 53.75 89.6875 54.2188 89.8438 54.6875C90.4688 55.9375 91.0938 57.1875 91.4062 58.4375C91.5625 58.9063 91.875 59.375 92.3438 59.5313L96.875 60.9375V65.1563Z" fill="#8593AF"/>
<path d="M73.9062 52.9688C68.4375 52.9688 63.9062 57.5 63.9062 62.9687C63.9062 68.4375 68.4375 72.9688 73.9062 72.9688C79.375 72.9688 83.9062 68.4375 83.9062 62.9687C83.9062 57.5 79.5312 52.9688 73.9062 52.9688ZM73.9062 70C70 70 66.875 66.875 66.875 62.9687C66.875 59.0625 70 55.9375 73.9062 55.9375C77.8125 55.9375 80.9375 59.0625 80.9375 62.9687C80.9375 66.875 77.8125 70 73.9062 70Z" fill="#8593AF"/>
</g>
<defs>
<clipPath id="clip0_5129_641">
<rect width="100" height="100" fill="white"/>
</clipPath>
</defs>
</svg>
