<svg width="20" height="20" viewBox="0 0 20 20" fill="none" xmlns="http://www.w3.org/2000/svg">
<path d="M19.6667 5.07498V9.84166C19.6667 9.97427 19.6141 10.1014 19.5203 10.1952C19.4265 10.289 19.2994 10.3417 19.1667 10.3417C19.0341 10.3417 18.907 10.289 18.8132 10.1952C18.7194 10.1014 18.6667 9.97427 18.6667 9.84166V6.28332L12.4251 12.5C12.2841 12.6416 12.1166 12.754 11.9321 12.8306C11.7477 12.9073 11.5499 12.9468 11.3501 12.9468C11.1503 12.9468 10.9525 12.9073 10.768 12.8306C10.5835 12.754 10.416 12.6416 10.2751 12.5L7.50007 9.72499C7.45183 9.67709 7.39461 9.63919 7.33169 9.61345C7.26877 9.58771 7.20139 9.57464 7.13341 9.57499C7.06543 9.57464 6.99804 9.58771 6.93512 9.61345C6.8722 9.63919 6.81498 9.67709 6.76674 9.72499L1.1834 15.275C1.08947 15.3689 0.962075 15.4217 0.829237 15.4217C0.696398 15.4217 0.569001 15.3689 0.47507 15.275C0.381139 15.1811 0.328369 15.0537 0.328369 14.9208C0.328369 14.788 0.381139 14.6606 0.47507 14.5667L6.02507 9.01666C6.16587 8.87523 6.33347 8.76332 6.51806 8.68748C6.70265 8.61164 6.90052 8.5734 7.10007 8.57499C7.29956 8.57386 7.49729 8.61231 7.68182 8.68813C7.86634 8.76394 8.034 8.8756 8.17507 9.01666L10.9751 11.8167C11.0231 11.865 11.0802 11.9034 11.1432 11.9296C11.2061 11.9558 11.2736 11.9693 11.3417 11.9693C11.4099 11.9693 11.4774 11.9558 11.5403 11.9296C11.6033 11.9034 11.6604 11.865 11.7084 11.8167L17.9584 5.56665H14.4001C14.2675 5.56665 14.1403 5.51397 14.0465 5.4202C13.9528 5.32644 13.9001 5.19926 13.9001 5.06665C13.9001 4.93404 13.9528 4.80687 14.0465 4.7131C14.1403 4.61933 14.2675 4.56665 14.4001 4.56665H19.1667C19.2994 4.56665 19.4265 4.61933 19.5203 4.7131C19.6141 4.80687 19.6667 4.93404 19.6667 5.06665V5.07498Z" fill="#8593AF"/>
</svg>
