<svg width="24" height="24" viewBox="0 0 24 24" fill="none" xmlns="http://www.w3.org/2000/svg">
<path d="M20.775 14.6344C20.5837 14.5224 20.3389 14.5864 20.2276 14.7772L15.641 22.6C15.3097 23.1733 14.5747 23.371 14.0189 23.0501L13.1255 22.4711C12.9398 22.3507 12.6921 22.4035 12.5721 22.5892C12.4516 22.7744 12.5048 23.0225 12.6901 23.1425L13.6012 23.7323C13.9153 23.914 14.259 24 14.5983 24C15.2901 24 15.9631 23.6419 16.3324 23.0025L20.9173 15.1817C21.029 14.9913 20.9655 14.746 20.775 14.6344Z" fill="#8593AF"/>
<path d="M21.9853 0H15.5834C14.3454 0 13.4232 0.394103 12.4997 1.31758C12.3433 1.47405 12.3433 1.72693 12.4997 1.88335C12.6562 2.03982 12.909 2.03982 13.0655 1.88335C13.8449 1.10391 14.5511 0.800209 15.5834 0.800209H21.9853C22.6471 0.800209 23.1857 1.33878 23.1857 2.00057V8.40253C23.1857 9.43526 22.882 10.141 22.1022 10.9205L10.2194 22.8201C9.76563 23.273 8.97499 23.2734 8.52209 22.8201L1.16584 15.4638C0.938991 15.237 0.814126 14.9357 0.814126 14.6148C0.814126 14.2943 0.938944 13.993 1.16542 13.7665L11.9055 3.0417C12.0707 3.08371 12.2364 3.12572 12.408 3.17172C14.0357 3.60783 15.3201 4.05839 16.2776 4.46051C16.0891 4.80941 15.9835 5.20033 15.9835 5.60165C15.9835 6.92566 17.0602 8.00238 18.3842 8.00238C19.7082 8.00238 20.7849 6.92566 20.7849 5.60165C20.7849 4.27765 19.7082 3.20093 18.3842 3.20093C18.163 3.20093 17.9841 3.38019 17.9841 3.60104C17.9841 3.82188 18.163 4.00114 18.3842 4.00114C19.2669 4.00114 19.9847 4.71897 19.9847 5.60161C19.9847 6.48429 19.2669 7.20207 18.3842 7.20207C17.5016 7.20207 16.7838 6.48425 16.7838 5.60161C16.7838 5.31352 16.8626 5.03223 17.0078 4.78738C17.7009 5.11907 18.1342 5.39876 18.3055 5.57722C18.2322 5.59804 18.119 5.62125 17.9482 5.63602C17.7281 5.65562 17.5653 5.8497 17.5849 6.06975C17.6033 6.27779 17.7777 6.43506 17.983 6.43506C17.9946 6.43506 18.0066 6.43426 18.0186 6.43347C18.2647 6.41147 19.0133 6.34546 19.1573 5.80886C19.5514 4.33682 13.7765 2.70991 12.6149 2.39861C10.838 1.92245 9.1315 1.59676 7.80909 1.48155C6.1842 1.33953 5.39275 1.52436 5.24393 2.08052C5.1727 2.34741 4.98266 3.056 8.22682 4.33518C8.43211 4.41639 8.66496 4.31558 8.74579 4.10992C8.82663 3.90427 8.72577 3.67179 8.52012 3.59095C6.95285 2.97277 6.30343 2.51982 6.09539 2.30657C6.58875 2.16173 8.27606 2.20374 10.9933 2.8215L0.600077 13.2004C0.221963 13.5785 0.013916 14.0806 0.013916 14.6148C0.013916 15.1494 0.221963 15.6519 0.600077 16.0296L7.95627 23.3858C8.33359 23.7635 8.83615 23.9716 9.37031 23.9716C9.90489 23.9716 10.407 23.7635 10.7851 23.3854L22.6683 11.4862C23.5921 10.5628 23.9859 9.64049 23.9859 8.40253V2.00062C23.9859 0.897457 23.0885 0 21.9853 0Z" fill="#8593AF"/>
<path d="M13.1007 10.5204C12.9443 10.3639 12.6914 10.3639 12.535 10.5204L12.3189 10.7364C12.0024 10.5268 11.6247 10.4031 11.2174 10.4031C10.1143 10.4031 9.21677 11.3006 9.21677 12.4038C9.21677 13 9.46284 13.4713 9.67731 13.8158C9.87739 14.1371 10.017 14.5948 10.017 14.8045C10.017 15.4663 9.47846 16.0048 8.81666 16.0048C8.15487 16.0048 7.6163 15.4663 7.6163 14.8045C7.6163 14.5616 7.6887 14.3275 7.82557 14.1275C7.95039 13.9454 7.90359 13.6962 7.72152 13.5713C7.53908 13.4469 7.29019 13.4933 7.16537 13.6754C6.93688 14.0091 6.81605 14.3996 6.81605 14.8045C6.81605 15.2119 6.93969 15.5895 7.14933 15.906L6.93327 16.1221C6.7768 16.2785 6.7768 16.5315 6.93327 16.6879C7.01129 16.7659 7.11375 16.8051 7.21615 16.8051C7.3186 16.8051 7.42101 16.7659 7.49903 16.6879L7.7151 16.4718C8.0316 16.6815 8.40929 16.8051 8.81662 16.8051C9.91973 16.8051 10.8172 15.9076 10.8172 14.8045C10.8172 14.4148 10.6236 13.821 10.3567 13.3925C10.1186 13.0104 10.017 12.7147 10.017 12.4038C10.017 11.742 10.5555 11.2034 11.2173 11.2034C11.5382 11.2034 11.8283 11.3315 12.0436 11.5375C12.0504 11.5447 12.0528 11.5543 12.0596 11.5615C12.0668 11.5683 12.0763 11.5707 12.0836 11.5775C12.2896 11.7927 12.4177 12.0829 12.4177 12.4037C12.4177 12.7246 12.2924 13.0267 12.0651 13.254C11.9087 13.41 11.9087 13.6633 12.0647 13.8197C12.2203 13.9762 12.4741 13.9758 12.6305 13.8201C13.009 13.4416 13.2179 12.9387 13.2179 12.4037C13.2179 11.9964 13.0942 11.6187 12.8846 11.3022L13.1006 11.0861C13.2572 10.9297 13.2572 10.6768 13.1007 10.5204Z" fill="#8593AF"/>
</svg>
