<svg width="80" height="80" viewBox="0 0 80 80" fill="none" xmlns="http://www.w3.org/2000/svg">
<path fill-rule="evenodd" clip-rule="evenodd" d="M30 70.8335C28.6193 70.8335 27.5 69.7142 27.5 68.3335V61.6668C27.5 60.2861 28.6193 59.1668 30 59.1668C31.3807 59.1668 32.5 60.2861 32.5 61.6668V68.3335C32.5 69.7142 31.3807 70.8335 30 70.8335Z" fill="#FF5071" fill-opacity="0.3"/>
<path fill-rule="evenodd" clip-rule="evenodd" d="M50 69.167C48.6193 69.167 47.5 68.0477 47.5 66.667V63.3337C47.5 61.953 48.6193 60.8337 50 60.8337C51.3807 60.8337 52.5 61.953 52.5 63.3337V66.667C52.5 68.0477 51.3807 69.167 50 69.167Z" fill="#FF5071" fill-opacity="0.3"/>
<path fill-rule="evenodd" clip-rule="evenodd" d="M40 75.8335C38.6193 75.8335 37.5 74.7142 37.5 73.3335V66.6668C37.5 65.2861 38.6193 64.1668 40 64.1668C41.3807 64.1668 42.5 65.2861 42.5 66.6668V73.3335C42.5 74.7142 41.3807 75.8335 40 75.8335Z" fill="#FF5071" fill-opacity="0.3"/>
<path fill-rule="evenodd" clip-rule="evenodd" d="M42.5498 39.8638V49.1069H37.5498V39.8638C37.5498 38.4832 38.6691 37.3638 40.0498 37.3638C41.4305 37.3638 42.5498 38.4832 42.5498 39.8638Z" fill="#FF5071" fill-opacity="0.3"/>
<path fill-rule="evenodd" clip-rule="evenodd" d="M15.4538 51.917C12.5234 48.7188 11.3916 43.8996 13.8259 39.3619L29.3867 10.3543C33.8162 2.09727 46.2732 2.10561 50.6895 10.3696L66.1832 39.3619C68.6095 43.9026 67.4708 48.7191 64.5365 51.9129C61.6185 55.0891 56.8722 56.7529 51.9272 55.2723L40.2872 51.7874C40.1318 51.7408 39.9658 51.7407 39.8102 51.7871L28.0612 55.2914C23.1134 56.7671 18.368 55.0975 15.4538 51.917ZM19.1403 48.5392C20.8301 50.3834 23.6159 51.3996 26.6321 50.5L38.3812 46.9957C39.4708 46.6706 40.6318 46.6712 41.7215 46.9974L53.3612 50.4824C56.3755 51.3849 59.1622 50.3723 60.8545 48.5302C62.5308 46.7058 63.0792 44.1623 61.7732 41.7186L46.2798 12.7263C43.7458 7.9846 36.3352 7.97827 33.7928 12.7179L18.2319 41.7256C16.9216 44.1683 17.4667 46.7126 19.1403 48.5392Z" fill="#FF5071"/>
</svg>
