<svg width="24" height="24" viewBox="0 0 24 24" fill="none" xmlns="http://www.w3.org/2000/svg">
<path fill-rule="evenodd" clip-rule="evenodd" d="M14.8783 4.08306C12.9851 3.63898 11.0149 3.63898 9.1217 4.08306C6.6216 4.6695 4.6695 6.62159 4.08306 9.1217C3.63898 11.0149 3.63898 12.9851 4.08306 14.8783C4.6695 17.3784 6.6216 19.3305 9.1217 19.9169C11.0149 20.361 12.9851 20.361 14.8783 19.9169C17.3784 19.3305 19.3305 17.3784 19.9169 14.8783C20.361 12.9851 20.361 11.0149 19.9169 9.1217C19.3305 6.6216 17.3784 4.6695 14.8783 4.08306ZM8.77915 2.6227C10.8976 2.12577 13.1024 2.12577 15.2208 2.6227C18.2756 3.33924 20.6608 5.7244 21.3773 8.77915C21.8742 10.8976 21.8742 13.1024 21.3773 15.2208C20.6608 18.2756 18.2756 20.6608 15.2208 21.3773C13.1024 21.8742 10.8976 21.8742 8.77915 21.3773C5.7244 20.6608 3.33924 18.2756 2.6227 15.2209C2.12577 13.1024 2.12577 10.8976 2.6227 8.77914C3.33924 5.72441 5.7244 3.33924 8.77915 2.6227Z" fill="#8E44AD"/>
<path fill-rule="evenodd" clip-rule="evenodd" d="M14.8783 4.08306C12.9851 3.63898 11.0149 3.63898 9.1217 4.08306C6.6216 4.6695 4.6695 6.62159 4.08306 9.1217C3.63898 11.0149 3.63898 12.9851 4.08306 14.8783C4.6695 17.3784 6.6216 19.3305 9.1217 19.9169C9.52497 20.0115 9.7752 20.4151 9.68061 20.8184C9.58601 21.2217 9.18242 21.4719 8.77915 21.3773C5.7244 20.6608 3.33924 18.2756 2.6227 15.2209C2.12577 13.1024 2.12577 10.8976 2.6227 8.77914C3.33924 5.72441 5.7244 3.33924 8.77915 2.6227C10.8976 2.12577 13.1024 2.12577 15.2208 2.6227C18.2756 3.33924 20.6608 5.7244 21.3773 8.77915C21.8742 10.8976 21.8742 13.1024 21.3773 15.2208C21.2827 15.6241 20.8791 15.8743 20.4758 15.7797C20.0726 15.6852 19.8224 15.2816 19.9169 14.8783C20.361 12.9851 20.361 11.0149 19.9169 9.1217C19.3305 6.6216 17.3784 4.6695 14.8783 4.08306Z" fill="#8E44AD"/>
<path fill-rule="evenodd" clip-rule="evenodd" d="M11.9991 8.58887C10.977 8.58887 10.1484 9.41745 10.1484 10.4395C10.1484 11.0807 10.4738 11.6462 10.972 11.9794C11.251 12.166 11.372 12.5153 11.2682 12.8346L10.5543 15.031C10.4933 15.2186 10.6331 15.411 10.8304 15.411H13.1678C13.365 15.411 13.5048 15.2186 13.4438 15.031L12.7299 12.8346C12.6262 12.5153 12.7472 12.166 13.0262 11.9794C13.5243 11.6462 13.8498 11.0807 13.8498 10.4395C13.8498 9.41745 13.0212 8.58887 11.9991 8.58887ZM8.64844 10.4395C8.64844 8.58902 10.1485 7.08887 11.9991 7.08887C13.8496 7.08887 15.3498 8.58902 15.3498 10.4395C15.3498 11.3919 14.952 12.2511 14.3156 12.8604L14.8704 14.5674C15.2464 15.7241 14.3841 16.911 13.1678 16.911H10.8304C9.61408 16.911 8.75183 15.7241 9.12782 14.5674L9.68263 12.8604C9.04616 12.2511 8.64844 11.3919 8.64844 10.4395Z" fill="#8E44AD"/>
</svg>
