<svg width="20" height="20" viewBox="0 0 20 20" fill="none" xmlns="http://www.w3.org/2000/svg">
<path d="M12.6996 18.5583H12.5913C8.89131 18.5583 7.10794 17.1 6.7996 13.8333C6.76627 13.4917 7.01627 13.1833 7.36627 13.15C7.69961 13.1167 8.01627 13.375 8.0496 13.7167C8.29127 16.3333 9.52465 17.3083 12.5996 17.3083H12.708C16.0996 17.3083 17.2996 16.1083 17.2996 12.7167V7.28332C17.2996 3.89165 16.0996 2.69165 12.708 2.69165H12.5996C9.50798 2.69165 8.2746 3.68332 8.0496 6.34998C8.00794 6.69165 7.71627 6.94998 7.36627 6.91665C7.01627 6.89165 6.76627 6.58332 6.79127 6.24165C7.07461 2.92498 8.86631 1.44165 12.5913 1.44165H12.6996C16.7913 1.44165 18.5413 3.19165 18.5413 7.28332V12.7167C18.5413 16.8083 16.7913 18.5583 12.6996 18.5583Z" fill="#475467"/>
<path d="M12.4995 10.625H3.01611C2.67445 10.625 2.39111 10.3417 2.39111 10C2.39111 9.65833 2.67445 9.375 3.01611 9.375H12.4995C12.8412 9.375 13.1245 9.65833 13.1245 10C13.1245 10.3417 12.8412 10.625 12.4995 10.625Z" fill="#475467"/>
<path d="M4.87454 13.4167C4.71621 13.4167 4.55788 13.3583 4.43288 13.2333L1.64121 10.4417C1.39954 10.2 1.39954 9.79999 1.64121 9.55832L4.43288 6.76664C4.67454 6.52497 5.07454 6.52497 5.31621 6.76664C5.55788 7.0083 5.55788 7.40831 5.31621 7.64997L2.96621 9.99999L5.31621 12.35C5.55788 12.5917 5.55788 12.9917 5.31621 13.2333C5.19954 13.3583 5.03288 13.4167 4.87454 13.4167Z" fill="#475467"/>
</svg>
