<svg width="24" height="24" viewBox="0 0 24 24" fill="none" xmlns="http://www.w3.org/2000/svg">
<g clip-path="url(#clip0_4826_498)">
<path d="M21.375 23.25H20.625C20.0048 23.25 19.5 22.7452 19.5 22.125V20.625C19.5 20.418 19.668 20.25 19.875 20.25C20.082 20.25 20.25 20.418 20.25 20.625V22.125C20.25 22.332 20.418 22.5 20.625 22.5H21.375C21.582 22.5 21.75 22.332 21.75 22.125V20.625C21.75 20.418 21.918 20.25 22.125 20.25C22.332 20.25 22.5 20.418 22.5 20.625V22.125C22.5 22.7452 21.9952 23.25 21.375 23.25Z" fill="#8593AF"/>
<path d="M22.875 23.25H12.375C12.168 23.25 12 23.082 12 22.875C12 22.668 12.168 22.5 12.375 22.5H22.875C23.082 22.5 23.25 22.668 23.25 22.875C23.25 23.082 23.082 23.25 22.875 23.25Z" fill="#8593AF"/>
<path d="M22.875 21H12.375C12.168 21 12 20.832 12 20.625C12 20.418 12.168 20.25 12.375 20.25H22.875C23.082 20.25 23.25 20.418 23.25 20.625C23.25 20.832 23.082 21 22.875 21Z" fill="#8593AF"/>
<path d="M22.8751 18.891C22.6681 18.891 22.5001 18.723 22.5001 18.516V17.625C22.5001 16.4032 21.4891 15.8115 15.7441 15.7552C15.5371 15.753 15.3706 15.5835 15.3728 15.3765C15.3743 15.1695 15.5288 15.0142 15.7516 15.0052C20.9371 15.0562 23.2501 15.4462 23.2501 17.625V18.516C23.2501 18.723 23.0821 18.891 22.8751 18.891Z" fill="#8593AF"/>
<path d="M22.875 19.5H19.875C19.668 19.5 19.5 19.332 19.5 19.125V18.375C19.5 17.7548 20.0048 17.25 20.625 17.25H22.875C23.082 17.25 23.25 17.418 23.25 17.625V19.125C23.25 19.332 23.082 19.5 22.875 19.5ZM20.25 18.75H22.5V18H20.625C20.418 18 20.25 18.168 20.25 18.375V18.75Z" fill="#8593AF"/>
<path d="M18.375 19.5C18.168 19.5 18 19.332 18 19.125C18 18.5048 17.4952 18 16.875 18H14.25C14.043 18 13.875 17.832 13.875 17.625C13.875 17.418 14.043 17.25 14.25 17.25H16.875C17.9085 17.25 18.75 18.0915 18.75 19.125C18.75 19.332 18.582 19.5 18.375 19.5Z" fill="#8593AF"/>
<path d="M21.4268 16.2795C21.2701 16.2795 21.1231 16.1805 21.0706 16.023L19.7588 12.081C19.6688 11.8162 19.3531 11.5515 19.0846 11.517C18.4486 11.4367 17.4158 11.3302 16.1101 11.2792C15.9031 11.271 15.7418 11.097 15.7501 10.89C15.7583 10.683 15.9451 10.521 16.1393 10.53C17.4713 10.5817 18.5273 10.6905 19.1791 10.773C19.7318 10.8435 20.2868 11.3032 20.4698 11.8417L21.7823 15.786C21.8476 15.9825 21.7411 16.1947 21.5446 16.26C21.5063 16.2735 21.4666 16.2795 21.4268 16.2795Z" fill="#8593AF"/>
<path d="M14.5222 6.0195C14.436 6.0195 14.3497 5.9895 14.2785 5.9295C14.121 5.7945 14.1022 5.55825 14.2365 5.40075L15.219 4.251C15.3495 4.098 15.4125 3.9045 15.3975 3.705C15.3817 3.5055 15.2895 3.324 15.1372 3.19425C14.985 3.063 14.7885 3.00075 14.592 3.01575C14.3917 3.0315 14.2102 3.12375 14.0805 3.276L13.41 4.0605C13.275 4.21725 13.038 4.236 12.8812 4.10175C12.7245 3.9675 12.705 3.7305 12.84 3.573L13.5105 2.78925C13.77 2.48475 14.1337 2.2995 14.5342 2.26875C14.9355 2.2395 15.3217 2.364 15.6255 2.625C15.9292 2.8845 16.1145 3.24825 16.146 3.64725C16.1775 4.04625 16.0507 4.434 15.7897 4.73925L14.808 5.889C14.7337 5.97525 14.628 6.0195 14.5222 6.0195Z" fill="#8593AF"/>
<path d="M11.625 18.75H7.87427C7.66727 18.75 7.49927 18.582 7.49927 18.375C7.49927 18.168 7.66727 18 7.87427 18H11.625C12.2453 18 12.75 17.4953 12.75 16.875V15.945C12.75 15.738 12.918 15.57 13.125 15.57C13.332 15.57 13.5 15.738 13.5 15.945V16.875C13.5 17.9085 12.6585 18.75 11.625 18.75Z" fill="#8593AF"/>
<path d="M3.375 11.625C3.168 11.625 3 11.457 3 11.25V2.625C3 1.5915 3.8415 0.75 4.875 0.75H11.625C12.6585 0.75 13.5 1.5915 13.5 2.625V7.5C13.5 7.707 13.332 7.875 13.125 7.875C12.918 7.875 12.75 7.707 12.75 7.5V2.625C12.75 2.00475 12.2452 1.5 11.625 1.5H4.875C4.25475 1.5 3.75 2.00475 3.75 2.625V11.25C3.75 11.457 3.582 11.625 3.375 11.625Z" fill="#8593AF"/>
<path d="M8.625 23.25C8.418 23.25 8.25 23.082 8.25 22.875V21.3285C8.25 21.1402 8.3895 20.9812 8.57625 20.9565C9.5385 20.8297 10.2712 20.4127 10.8825 19.6432C11.0115 19.4812 11.247 19.4527 11.409 19.5825C11.571 19.7107 11.5987 19.947 11.4697 20.109C10.8007 20.9527 10.0095 21.447 9 21.6465V22.875C9 23.082 8.832 23.25 8.625 23.25Z" fill="#8593AF"/>
<path d="M13.3576 10.215C13.0021 10.215 12.6571 10.0868 12.3864 9.85425C12.0819 9.594 11.8966 9.231 11.8636 8.835C11.8314 8.436 11.9566 8.04825 12.2184 7.743L12.3481 7.58475C12.6084 7.275 12.9706 7.08825 13.3704 7.05525C13.7724 7.02525 14.1601 7.149 14.4646 7.40925C14.7691 7.67025 14.9529 8.03475 14.9836 8.43525C15.0136 8.83575 14.8861 9.2235 14.6251 9.528L14.5044 9.67725C14.2209 10.0208 13.8039 10.215 13.3576 10.215ZM13.4934 7.80075C13.4724 7.80075 13.4514 7.8015 13.4311 7.803C13.2324 7.81875 13.0524 7.91175 12.9249 8.06325L12.7929 8.2245C12.6579 8.382 12.5949 8.57475 12.6114 8.77275C12.6279 8.9715 12.7209 9.153 12.8746 9.28425C13.1806 9.546 13.6764 9.501 13.9246 9.2025L14.0499 9.048C14.3274 8.724 14.2914 8.2485 13.9771 7.9785C13.8406 7.863 13.6711 7.80075 13.4934 7.80075Z" fill="#8593AF"/>
<path d="M13.1774 13.23C12.8167 13.23 12.4807 13.1048 12.2062 12.8693C11.9024 12.609 11.7164 12.246 11.6842 11.85C11.6519 11.451 11.7772 11.0633 12.0389 10.758L12.6097 10.0973C12.8617 9.79726 13.2217 9.61276 13.6199 9.57976C14.0197 9.55126 14.4119 9.67351 14.7187 9.93601C15.0239 10.1933 15.2099 10.5555 15.2429 10.9545C15.2752 11.355 15.1499 11.7435 14.8889 12.0488L14.3174 12.7095C14.0242 13.0418 13.6094 13.23 13.1774 13.23ZM13.7414 10.3253C13.7212 10.3253 13.7002 10.326 13.6792 10.3275C13.4819 10.3433 13.3049 10.4348 13.1789 10.5833L12.6059 11.247C12.4769 11.3978 12.4147 11.5905 12.4304 11.7878C12.4469 11.9865 12.5399 12.168 12.6937 12.2993C12.9974 12.5603 13.4812 12.5205 13.7512 12.2168L14.3189 11.5598C14.4479 11.409 14.5102 11.2155 14.4937 11.0153C14.4779 10.8158 14.3849 10.6365 14.2334 10.509L14.2312 10.5068C14.0924 10.389 13.9207 10.3253 13.7414 10.3253Z" fill="#8593AF"/>
<path d="M13.1399 16.32C12.7844 16.32 12.4394 16.1925 12.1686 15.96C11.5379 15.4193 11.4629 14.469 11.9999 13.8413L12.5729 13.1858C12.8316 12.8843 13.1954 12.6983 13.5944 12.666C13.9926 12.6368 14.3842 12.7598 14.6887 13.0208C14.9932 13.2818 15.1777 13.6455 15.2077 14.0468C15.2377 14.4465 15.1102 14.8343 14.8492 15.1395L14.2769 15.795C14.0031 16.125 13.5861 16.32 13.1399 16.32ZM13.7174 13.4108C13.6971 13.4108 13.6761 13.4115 13.6551 13.413C13.4541 13.4288 13.2711 13.5225 13.1399 13.6763L12.5669 14.3317C12.3006 14.643 12.3396 15.1185 12.6561 15.3907C12.9606 15.6525 13.4586 15.6075 13.7054 15.309L14.2822 14.649C14.4104 14.499 14.4749 14.3048 14.4599 14.1038C14.4449 13.9035 14.3527 13.7213 14.2004 13.5908C14.0647 13.473 13.8952 13.4108 13.7174 13.4108Z" fill="#8593AF"/>
<path d="M1.125 23.25C0.918 23.25 0.75 23.082 0.75 22.875V7.15275C0.75 6.94575 0.918 6.77775 1.125 6.77775L1.2315 6.7725C1.584 6.75 2.40675 6.696 3.027 7.27725C3.507 7.7265 3.75 8.4495 3.75 9.426V12.7807C4.37475 13.2442 6.4515 15.0217 6.71325 18.3465C6.729 18.5527 6.57525 18.7335 6.36825 18.75C6.162 18.7672 5.98125 18.612 5.96475 18.4057C5.69325 14.9542 3.19725 13.308 3.17175 13.2922C3.06525 13.2217 3 13.1032 3 12.9757V9.426C3 8.6655 2.8365 8.127 2.514 7.82475C2.2125 7.54125 1.80375 7.5045 1.5 7.50975V22.875C1.5 23.082 1.332 23.25 1.125 23.25Z" fill="#8593AF"/>
<path d="M8.25006 12.75C8.14356 12.75 8.04231 12.705 7.97106 12.6255C7.86156 12.5033 5.27856 9.60825 5.27856 7.37175C5.27856 5.7885 6.61131 4.5 8.25006 4.5C9.88881 4.5 11.2216 5.7885 11.2216 7.37175C11.2216 9.60825 8.63856 12.5033 8.52906 12.6255C8.45781 12.705 8.35656 12.75 8.25006 12.75ZM8.25006 5.25C7.02531 5.25 6.02856 6.20175 6.02856 7.37175C6.02856 8.9235 7.59756 10.9995 8.25006 11.7952C8.90256 10.9995 10.4716 8.9235 10.4716 7.37175C10.4716 6.20175 9.47481 5.25 8.25006 5.25Z" fill="#8593AF"/>
<path d="M8.25 8.58301C7.62975 8.58301 7.125 8.07826 7.125 7.45801C7.125 6.83776 7.62975 6.33301 8.25 6.33301C8.87025 6.33301 9.375 6.83776 9.375 7.45801C9.375 8.07826 8.87025 8.58301 8.25 8.58301ZM8.25 7.08301C8.043 7.08301 7.875 7.25101 7.875 7.45801C7.875 7.66501 8.043 7.83301 8.25 7.83301C8.457 7.83301 8.625 7.66501 8.625 7.45801C8.625 7.25101 8.457 7.08301 8.25 7.08301Z" fill="#8593AF"/>
<path d="M17.625 9.75H15.75C15.543 9.75 15.375 9.582 15.375 9.375C15.375 9.168 15.543 9 15.75 9H17.625C17.832 9 18 9.168 18 9.375C18 9.582 17.832 9.75 17.625 9.75Z" fill="#8593AF"/>
<path d="M9.37502 3H7.12427C6.91727 3 6.74927 2.832 6.74927 2.625C6.74927 2.418 6.91727 2.25 7.12427 2.25H9.37502C9.58202 2.25 9.75002 2.418 9.75002 2.625C9.75002 2.832 9.58202 3 9.37502 3Z" fill="#8593AF"/>
<path d="M8.62502 17.25H7.87427C7.66727 17.25 7.49927 17.082 7.49927 16.875C7.49927 16.668 7.66727 16.5 7.87427 16.5H8.62502C8.83202 16.5 9.00002 16.668 9.00002 16.875C9.00002 17.082 8.83202 17.25 8.62502 17.25Z" fill="#8593AF"/>
</g>
<defs>
<clipPath id="clip0_4826_498">
<rect width="24" height="24" fill="white"/>
</clipPath>
</defs>
</svg>
