<svg width="43" height="40" viewBox="0 0 43 40" fill="none" xmlns="http://www.w3.org/2000/svg">
<path d="M29.4645 39.7694C29.5565 39.6618 32.5917 36.1115 36.24 31.8697C39.8731 27.6432 42.8623 24.139 42.8623 24.1083C42.8623 24.0775 42.7703 23.9239 42.6477 23.7702C42.4944 23.5857 42.4024 23.5089 42.3258 23.5243C42.2644 23.5396 39.7658 24.9228 36.7766 26.6135C33.7874 28.3041 31.3194 29.6873 31.2734 29.6873C31.2274 29.6873 30.8288 29.1647 30.3689 28.5346C28.8973 26.5059 26.8739 23.8931 25.1723 21.8337C18.4581 13.7034 11.4373 7.09469 4.63112 2.46859C3.15951 1.4696 0.829465 0.0249023 0.660843 0.0249023C0.630184 0.0249023 0.492221 0.163225 0.369587 0.347654L0.139648 0.670406L0.415575 0.916313C2.51568 2.88356 3.28215 3.62127 4.49316 4.82006C13.1235 13.4729 19.8224 22.6482 26.1074 34.4824C26.9965 36.1423 28.8054 39.7233 28.8207 39.8462C28.836 39.9231 28.8973 39.9538 29.0813 39.9538C29.3112 39.9692 29.3419 39.9538 29.4798 39.7694H29.4645Z" fill="#8E44AD"/>
</svg>
