<svg width="12" height="12" viewBox="0 0 12 12" fill="none" xmlns="http://www.w3.org/2000/svg">
<path d="M11.3333 8.33334C10.5033 8.33334 9.7 8.2 8.95334 7.95334C8.72334 7.88 8.46 7.93334 8.27669 8.11669L6.81003 9.58669C4.92003 8.62669 3.37669 7.08334 2.41669 5.19669L3.88334 3.72334C4.06669 3.54 4.12 3.27669 4.04669 3.04669C3.80003 2.30003 3.66669 1.49669 3.66669 0.666687C3.66666 0.296656 3.37 0 3 0H0.666656C0.3 0 0 0.296656 0 0.666656C0 6.92666 5.07334 12 11.3333 12C11.7033 12 12 11.7033 12 11.3333V9C12 8.63 11.7033 8.33334 11.3333 8.33334Z" fill="#8E44AD"/>
</svg>
