<svg width="20" height="20" viewBox="0 0 20 20" fill="none" xmlns="http://www.w3.org/2000/svg">
<g clip-path="url(#clip0_3613_84128)">
<path d="M9.11449 18.2666C11.3413 18.2666 13.446 17.4729 15.1063 16.0202L18.937 19.7833C19.0587 19.9028 19.2169 19.9624 19.375 19.9624C19.5368 19.9624 19.6985 19.9 19.8209 19.7754C20.0627 19.5292 20.0593 19.1335 19.813 18.8916L15.9898 15.1358C17.438 13.4767 18.229 11.3753 18.229 9.15209C18.229 6.71752 17.2809 4.42869 15.5594 2.70717C13.8379 0.985684 11.5491 0.0375977 9.11449 0.0375977C6.67996 0.0375977 4.39109 0.985684 2.66961 2.70717C0.948086 4.42869 0 6.71752 0 9.15209C0 11.5867 0.948086 13.8755 2.66961 15.597C4.39109 17.3185 6.67996 18.2666 9.11449 18.2666ZM3.55348 3.59104C5.08668 2.05783 7.10062 1.29127 9.11449 1.29127C11.1284 1.29127 13.1423 2.05787 14.6755 3.59104C17.7419 6.6574 17.7419 11.6468 14.6755 14.7131C11.6092 17.7795 6.61992 17.7796 3.55344 14.7131C0.487109 11.6468 0.487109 6.6574 3.55348 3.59104Z" fill="#8593AF"/>
</g>
<defs>
<clipPath id="clip0_3613_84128">
<rect width="20" height="20" fill="white"/>
</clipPath>
</defs>
</svg>
