<svg width="20" height="20" viewBox="0 0 20 20" fill="none" xmlns="http://www.w3.org/2000/svg">
<path d="M10 16.4714C8.84906 16.4714 7.91675 15.5391 7.91675 14.388C7.91675 13.237 8.84906 12.3047 10 12.3047C11.151 12.3047 12.0833 13.237 12.0833 14.388C12.0833 15.5391 11.151 16.4714 10 16.4714ZM10 13.138C9.31247 13.138 8.75003 13.7006 8.75003 14.388C8.75003 15.0755 9.31247 15.638 10 15.638C10.6876 15.638 11.25 15.0755 11.25 14.388C11.25 13.7006 10.6876 13.138 10 13.138Z" fill="#8593AF"/>
<path d="M15.3763 8.42578L15.9655 9.01508L11.4726 13.508L10.8833 12.9189L15.3763 8.42578Z" fill="#8593AF"/>
<path d="M20 14.8047H15.4167V13.5547C15.4167 12.7786 15.2553 12.0235 14.9374 11.3203L15.6979 10.9766C16.0677 11.7891 16.25 12.6537 16.25 13.5547V13.9714H19.1667V13.5547C19.1667 8.50266 15.052 4.38797 10 4.38797C4.94797 4.38797 0.833282 8.50266 0.833282 13.5547V13.9714H3.75V13.5547C3.75 10.1068 6.55212 7.30469 10 7.30469C11.2291 7.30469 12.4167 7.65884 13.4375 8.33588L12.9791 9.03381C12.0938 8.45047 11.0677 8.14316 10 8.14316C7.01569 8.14316 4.58328 10.5756 4.58328 13.5599V14.8099H0V13.5599C0 8.03909 4.48441 3.55469 10 3.55469C15.5156 3.55469 20 8.03909 20 13.5547V14.8047Z" fill="#8593AF"/>
</svg>
