<svg width="20" height="20" viewBox="0 0 20 20" fill="none" xmlns="http://www.w3.org/2000/svg">
<g clip-path="url(#clip0_2772_69875)">
<path d="M9.99996 2.83942C6.05148 2.83942 2.83936 6.05154 2.83936 10C2.83936 13.9485 6.05148 17.1606 9.99996 17.1606C13.9484 17.1606 17.1606 13.9485 17.1606 10C17.1606 6.05154 13.9484 2.83942 9.99996 2.83942ZM9.99996 3.44548C13.1242 3.44548 15.7424 5.64245 16.3969 8.56972C12.2 7.33942 7.79996 7.33942 3.60299 8.56972C4.25754 5.63942 6.87572 3.44548 9.99996 3.44548ZM3.77875 12.0667H4.32723C6.47875 12.0667 8.22723 13.8152 8.22723 15.9667V16.3091C6.13632 15.7243 4.4636 14.1182 3.77875 12.0667ZM8.83633 16.4515V15.9697C8.83633 13.4849 6.81511 11.4637 4.33026 11.4637H3.61208C3.50602 10.994 3.44542 10.5061 3.44542 10.0031C3.44542 9.74548 3.4636 9.4879 3.49087 9.23942C7.75451 7.9273 12.2454 7.9273 16.5091 9.23942C16.5394 9.49093 16.5545 9.74548 16.5545 10.0061C16.5545 10.5091 16.4969 10.997 16.3878 11.4667H15.6727C13.1878 11.4667 11.1666 13.4879 11.1666 15.9728V16.4546C10.7878 16.5243 10.3969 16.5606 9.99996 16.5606C9.60299 16.5546 9.21511 16.5182 8.83633 16.4515ZM11.7727 16.3091V15.9667C11.7727 13.8152 13.5212 12.0667 15.6727 12.0667H16.2181C15.5363 14.1182 13.8666 15.7212 11.7727 16.3091Z" fill="#475467"/>
<path d="M9.99995 0.30304C4.65146 0.30304 0.302979 4.65455 0.302979 10C0.302979 15.3455 4.65146 19.697 9.99995 19.697C15.3484 19.697 19.6969 15.3455 19.6969 10C19.6969 4.65455 15.3484 0.30304 9.99995 0.30304ZM9.99995 19.0909C4.98783 19.0909 0.909039 15.0121 0.909039 10C0.909039 4.98789 4.98783 0.9091 9.99995 0.9091C15.0121 0.9091 19.0909 4.98789 19.0909 10C19.0909 15.0121 15.0121 19.0909 9.99995 19.0909Z" fill="#475467"/>
<path d="M11.812 10.6727C11.812 9.67272 10.9999 8.8606 9.99987 8.8606C8.99987 8.8606 8.18774 9.67272 8.18774 10.6727C8.18774 11.6697 8.99987 12.4848 9.99987 12.4848C10.9999 12.4848 11.812 11.6697 11.812 10.6727ZM8.7938 10.6727C8.7938 10.0091 9.3332 9.46666 9.99987 9.46666C10.6665 9.46666 11.2059 10.0061 11.2059 10.6727C11.2059 11.3394 10.6665 11.8788 9.99987 11.8788C9.3332 11.8788 8.7938 11.3364 8.7938 10.6727Z" fill="#475467"/>
</g>
<defs>
<clipPath id="clip0_2772_69875">
<rect width="20" height="20" fill="white"/>
</clipPath>
</defs>
</svg>
