<svg width="20" height="20" viewBox="0 0 20 20" fill="none" xmlns="http://www.w3.org/2000/svg">
<path d="M13.5938 7.8125C13.5938 5.82812 11.9844 4.21875 10 4.21875C8.01562 4.21875 6.40625 5.82812 6.40625 7.8125C6.40625 9.79688 8.01562 11.4062 10 11.4062C11.9844 11.4062 13.5938 9.79688 13.5938 7.8125ZM7.34375 7.8125C7.34375 6.34375 8.53125 5.15625 10 5.15625C11.4688 5.15625 12.6562 6.34375 12.6562 7.8125C12.6562 9.28125 11.4688 10.4688 10 10.4688C8.53125 10.4688 7.34375 9.28125 7.34375 7.8125Z" fill="#475467"/>
<path d="M3.98443 16.9062C4.06255 16.9531 4.14068 16.9688 4.2188 16.9688C4.37505 16.9688 4.54693 16.8906 4.62505 16.7344C5.7188 14.7969 7.7813 13.5938 10.0001 13.5938C12.2188 13.5938 14.2813 14.7969 15.3907 16.7344C15.5157 16.9531 15.8126 17.0312 16.0313 16.9062C16.2501 16.7812 16.3282 16.4844 16.2032 16.2656C14.9376 14.0469 12.5626 12.6562 10.0001 12.6562C7.43755 12.6562 5.06255 14.0469 3.79693 16.2656C3.67193 16.4844 3.75005 16.7812 3.98443 16.9062Z" fill="#475467"/>
</svg>
